<svg width="121" height="24" viewBox="0 0 121 24" fill="none" xmlns="http://www.w3.org/2000/svg">
<path d="M4.032 0.599998H8.8L12.448 23H8.928L8.288 18.552V18.616H4.288L3.648 23H0.384L4.032 0.599998ZM7.872 15.576L6.304 4.504H6.24L4.704 15.576H7.872ZM13.8358 0.599998H19.1478C20.9611 0.599998 22.2838 1.02667 23.1158 1.88C23.9478 2.712 24.3638 4.00267 24.3638 5.752V6.648C24.3638 7.8 24.1718 8.73867 23.7878 9.464C23.4251 10.1893 22.8598 10.712 22.0918 11.032V11.096C23.8411 11.6933 24.7158 13.2507 24.7158 15.768V17.688C24.7158 19.416 24.2571 20.7387 23.3398 21.656C22.4438 22.552 21.1211 23 19.3718 23H13.8358V0.599998ZM18.7318 9.72C19.4358 9.72 19.9584 9.53867 20.2998 9.176C20.6624 8.81333 20.8438 8.20533 20.8438 7.352V6.104C20.8438 5.29333 20.6944 4.70667 20.3958 4.344C20.1184 3.98133 19.6704 3.8 19.0518 3.8H17.3558V9.72H18.7318ZM19.3718 19.8C19.9904 19.8 20.4491 19.64 20.7478 19.32C21.0464 18.9787 21.1958 18.4027 21.1958 17.592V15.64C21.1958 14.616 21.0144 13.912 20.6518 13.528C20.3104 13.1227 19.7344 12.92 18.9238 12.92H17.3558V19.8H19.3718ZM26.4533 0.599998H31.8293C33.5786 0.599998 34.8906 1.06933 35.7653 2.008C36.6399 2.94667 37.0773 4.32267 37.0773 6.136V17.464C37.0773 19.2773 36.6399 20.6533 35.7653 21.592C34.8906 22.5307 33.5786 23 31.8293 23H26.4533V0.599998ZM31.7653 19.8C32.3413 19.8 32.7786 19.6293 33.0773 19.288C33.3973 18.9467 33.5573 18.392 33.5573 17.624V5.976C33.5573 5.208 33.3973 4.65333 33.0773 4.312C32.7786 3.97067 32.3413 3.8 31.7653 3.8H29.9733V19.8H31.7653ZM44.2533 23.32C42.5466 23.32 41.2453 22.84 40.3493 21.88C39.4533 20.8987 39.0053 19.5013 39.0053 17.688V0.599998H42.5253V17.944C42.5253 18.712 42.6746 19.2667 42.9733 19.608C43.2933 19.9493 43.7413 20.12 44.3173 20.12C44.8933 20.12 45.3306 19.9493 45.6293 19.608C45.9493 19.2667 46.1093 18.712 46.1093 17.944V0.599998H49.5013V17.688C49.5013 19.5013 49.0533 20.8987 48.1573 21.88C47.2613 22.84 45.9599 23.32 44.2533 23.32ZM51.6883 0.599998H55.2083V19.8H61.0003V23H51.6883V0.599998ZM65.2133 0.599998H69.9813L73.6293 23H70.1093L69.4693 18.552V18.616H65.4693L64.8293 23H61.5653L65.2133 0.599998ZM69.0533 15.576L67.4853 4.504H67.4213L65.8853 15.576H69.0533ZM74.438 19.864L80.966 3.8H74.758V0.599998H84.742V3.736L78.214 19.8H84.742V23H74.438V19.864ZM86.4158 0.599998H89.9358V23H86.4158V0.599998ZM91.548 19.864L98.076 3.8H91.868V0.599998H101.852V3.736L95.324 19.8H101.852V23H91.548V19.864ZM111.083 3.8H107.403V0.599998H118.283V3.8H114.603V23H111.083V3.8ZM117.323 19.608H120.715V23H117.323V19.608Z" fill="#C7C7C7"/>
</svg>
